HIERARCHY
ROOT newVegas:Hips
{
	OFFSET 0.000000 96.479958 0.000000
	CHANNELS 6 Xposition Yposition Zposition Xrotation Yrotation Zrotation
	JOINT newVegas:Pelvis
	{
		OFFSET 0.000000 0.000000 0.000000
		CHANNELS 3 Xrotation Yrotation Zrotation
		JOINT newVegas:LeftUpLeg
		{
			OFFSET 18.735201 -5.666702 -4.541200
			CHANNELS 3 Xrotation Yrotation Zrotation
			JOINT newVegas:LeftLeg
			{
				OFFSET -0.021200 -31.938179 0.493100
				CHANNELS 3 Xrotation Yrotation Zrotation
				JOINT newVegas:LeftFoot
				{
					OFFSET 0.021200 -31.938179 -4.336299
					CHANNELS 3 Xrotation Yrotation Zrotation
					JOINT newVegas:LeftToeBase
					{
						OFFSET 0.943001 -26.722000 15.023500
						CHANNELS 3 Xrotation Yrotation Zrotation
						End Site
						{
							OFFSET 0.000000 30.670183 0.000000
						}
					}
				}
				JOINT newVegas:Left_PantLeg
				{
					OFFSET 0.663870 -9.044666 -1.108900
					CHANNELS 3 Xrotation Yrotation Zrotation
					End Site
					{
						OFFSET 1.415995 20.635357 0.000000
					}
				}
			}
		}
		JOINT newVegas:RightUpLeg
		{
			OFFSET -18.735201 -5.666702 -4.541200
			CHANNELS 3 Xrotation Yrotation Zrotation
			JOINT newVegas:RightLeg
			{
				OFFSET 0.018946 -31.938133 0.493100
				CHANNELS 3 Xrotation Yrotation Zrotation
				JOINT newVegas:RightFoot
				{
					OFFSET -0.018946 -31.938126 -4.336299
					CHANNELS 3 Xrotation Yrotation Zrotation
					JOINT newVegas:RightToeBase
					{
						OFFSET -0.943001 -26.722004 15.023500
						CHANNELS 3 Xrotation Yrotation Zrotation
						End Site
						{
							OFFSET 0.000000 30.670187 0.000000
						}
					}
				}
				JOINT newVegas:Right_PantLeg
				{
					OFFSET -0.661674 -9.044716 -1.108900
					CHANNELS 3 Xrotation Yrotation Zrotation
					End Site
					{
						OFFSET -1.415958 20.635269 0.000000
					}
				}
			}
		}
	}
	JOINT newVegas:Spine
	{
		OFFSET 0.000000 10.199997 -0.299500
		CHANNELS 3 Xrotation Yrotation Zrotation
		JOINT newVegas:Spine1
		{
			OFFSET 0.000000 11.900002 -1.516600
			CHANNELS 3 Xrotation Yrotation Zrotation
			JOINT newVegas:Spine2
			{
				OFFSET 0.000000 13.600006 -2.842500
				CHANNELS 3 Xrotation Yrotation Zrotation
				JOINT newVegas:Neck
				{
					OFFSET 0.000000 9.624100 -2.890100
					CHANNELS 3 Xrotation Yrotation Zrotation
					JOINT newVegas:Head
					{
						OFFSET 0.000000 14.068802 -1.351900
						CHANNELS 3 Xrotation Yrotation Zrotation
						JOINT newVegas:Hair_Back
						{
							OFFSET 0.000000 3.231903 -17.524799
							CHANNELS 3 Xrotation Yrotation Zrotation
							End Site
							{
								OFFSET 0.000000 19.849884 0.000000
							}
						}
						JOINT newVegas:Hair_Front
						{
							OFFSET 0.000000 31.260406 4.573800
							CHANNELS 3 Xrotation Yrotation Zrotation
							JOINT newVegas:Hair_Front1
							{
								OFFSET 0.000000 2.284103 11.993300
								CHANNELS 3 Xrotation Yrotation Zrotation
								JOINT newVegas:Hair_Front2
								{
									OFFSET 0.000000 2.284103 11.993300
									CHANNELS 3 Xrotation Yrotation Zrotation
									End Site
									{
										OFFSET 0.000000 12.208862 0.000000
									}
								}
							}
						}
						JOINT newVegas:Jowel
						{
							OFFSET 0.000000 -7.458206 6.864100
							CHANNELS 3 Xrotation Yrotation Zrotation
							End Site
							{
								OFFSET 0.000000 19.849884 0.000000
							}
						}
					}
				}
				JOINT newVegas:LeftShoulder
				{
					OFFSET 15.263000 10.923401 -0.547700
					CHANNELS 3 Xrotation Yrotation Zrotation
					JOINT newVegas:LeftArm
					{
						OFFSET 25.438599 -2.830597 -13.032500
						CHANNELS 3 Xrotation Yrotation Zrotation
						JOINT newVegas:LeftForeArm
						{
							OFFSET 29.960503 0.000000 0.000000
							CHANNELS 3 Xrotation Yrotation Zrotation
							JOINT newVegas:LeftHand
							{
								OFFSET 27.849251 0.000000 0.000000
								CHANNELS 3 Xrotation Yrotation Zrotation
								JOINT newVegas:LeftHandThumb1
								{
									OFFSET 4.487587 -3.305161 6.305391
									CHANNELS 3 Xrotation Yrotation Zrotation
									JOINT newVegas:LeftHandThumb2
									{
										OFFSET 5.480453 -3.164139 3.164143
										CHANNELS 3 Xrotation Yrotation Zrotation
										JOINT newVegas:LeftHandThumb3
										{
											OFFSET 5.159721 -2.978973 2.978967
											CHANNELS 3 Xrotation Yrotation Zrotation
											End Site
											{
												OFFSET 2.494507 5.926697 1.738678
											}
										}
									}
								}
								JOINT newVegas:LeftHandIndex1
								{
									OFFSET 18.578728 -0.527832 5.208049
									CHANNELS 3 Xrotation Yrotation Zrotation
									JOINT newVegas:LeftHandIndex2
									{
										OFFSET 3.192009 0.000000 0.000000
										CHANNELS 3 Xrotation Yrotation Zrotation
										JOINT newVegas:LeftHandIndex3
										{
											OFFSET 3.835129 0.000000 0.000000
											CHANNELS 3 Xrotation Yrotation Zrotation
											End Site
											{
												OFFSET -0.034599 3.816971 0.371180
											}
										}
									}
								}
								JOINT newVegas:LeftHandMiddle1
								{
									OFFSET 18.476105 0.000000 0.000000
									CHANNELS 3 Xrotation Yrotation Zrotation
									JOINT newVegas:LeftHandMiddle2
									{
										OFFSET 3.324875 0.000000 0.000000
										CHANNELS 3 Xrotation Yrotation Zrotation
										JOINT newVegas:LeftHandMiddle3
										{
											OFFSET 4.596550 0.000000 0.000000
											CHANNELS 3 Xrotation Yrotation Zrotation
											End Site
											{
												OFFSET 0.057701 4.578827 0.399218
											}
										}
									}
								}
								JOINT newVegas:LeftHandRing1
								{
									OFFSET 17.732719 0.121887 -4.201567
									CHANNELS 3 Xrotation Yrotation Zrotation
									JOINT newVegas:LeftHandRing2
									{
										OFFSET 2.733170 0.000000 0.000000
										CHANNELS 3 Xrotation Yrotation Zrotation
										JOINT newVegas:LeftHandRing3
										{
											OFFSET 3.178268 0.000000 0.000000
											CHANNELS 3 Xrotation Yrotation Zrotation
											End Site
											{
												OFFSET 0.119102 3.170624 0.185394
											}
										}
									}
								}
								JOINT newVegas:LeftHandPinky1
								{
									OFFSET 15.989624 -0.606689 -7.535461
									CHANNELS 3 Xrotation Yrotation Zrotation
									JOINT newVegas:LeftHandPinky2
									{
										OFFSET 2.538986 0.000000 0.000000
										CHANNELS 3 Xrotation Yrotation Zrotation
										JOINT newVegas:LeftHandPinky3
										{
											OFFSET 2.593102 0.000000 0.000000
											CHANNELS 3 Xrotation Yrotation Zrotation
											End Site
											{
												OFFSET -0.150902 2.584198 0.152708
											}
										}
									}
								}
							}
							JOINT newVegas:Left_Sleeve
							{
								OFFSET 0.267448 -0.649796 0.577675
								CHANNELS 3 Xrotation Yrotation Zrotation
								End Site
								{
									OFFSET 0.000000 15.991241 0.000000
								}
							}
							JOINT newVegas:Left_CapeC
							{
								OFFSET 15.715958 -8.608795 -6.935905
								CHANNELS 3 Xrotation Yrotation Zrotation
								JOINT newVegas:Left_CapeC1
								{
									OFFSET 0.000000 -8.688499 0.000000
									CHANNELS 3 Xrotation Yrotation Zrotation
									End Site
									{
										OFFSET 0.000000 8.688499 0.000000
									}
								}
							}
						}
						JOINT newVegas:Left_CapeB
						{
							OFFSET 26.118385 -8.608795 -7.079235
							CHANNELS 3 Xrotation Yrotation Zrotation
							JOINT newVegas:Left_CapeB1
							{
								OFFSET 0.000000 -8.688499 0.000000
								CHANNELS 3 Xrotation Yrotation Zrotation
								End Site
								{
									OFFSET 0.000000 8.688499 0.000000
								}
							}
						}
						JOINT newVegas:Left_CapeA
						{
							OFFSET 5.115639 -8.608795 -10.395809
							CHANNELS 3 Xrotation Yrotation Zrotation
							JOINT newVegas:Left_CapeA1
							{
								OFFSET 0.000000 -8.688499 0.000000
								CHANNELS 3 Xrotation Yrotation Zrotation
								End Site
								{
									OFFSET 0.000000 8.688499 0.000000
								}
							}
						}
					}
				}
				JOINT newVegas:RightShoulder
				{
					OFFSET -15.263000 10.923401 -0.547700
					CHANNELS 3 Xrotation Yrotation Zrotation
					JOINT newVegas:RightArm
					{
						OFFSET -25.438599 -2.830597 -13.032500
						CHANNELS 3 Xrotation Yrotation Zrotation
						JOINT newVegas:RightForeArm
						{
							OFFSET -29.960503 0.000000 0.000000
							CHANNELS 3 Xrotation Yrotation Zrotation
							JOINT newVegas:RightHand
							{
								OFFSET -27.849251 0.000000 0.000000
								CHANNELS 3 Xrotation Yrotation Zrotation
								JOINT newVegas:RightHandThumb1
								{
									OFFSET -4.487587 -3.305161 6.305391
									CHANNELS 3 Xrotation Yrotation Zrotation
									JOINT newVegas:RightHandThumb2
									{
										OFFSET -5.480453 -3.164139 3.164143
										CHANNELS 3 Xrotation Yrotation Zrotation
										JOINT newVegas:RightHandThumb3
										{
											OFFSET -5.159721 -2.978973 2.978967
											CHANNELS 3 Xrotation Yrotation Zrotation
											End Site
											{
												OFFSET -2.494507 5.926697 1.738678
											}
										}
									}
								}
								JOINT newVegas:RightHandIndex1
								{
									OFFSET -18.578728 -0.527832 5.208049
									CHANNELS 3 Xrotation Yrotation Zrotation
									JOINT newVegas:RightHandIndex2
									{
										OFFSET -3.192009 0.000000 0.000000
										CHANNELS 3 Xrotation Yrotation Zrotation
										JOINT newVegas:RightHandIndex3
										{
											OFFSET -3.835129 0.000000 0.000000
											CHANNELS 3 Xrotation Yrotation Zrotation
											End Site
											{
												OFFSET 0.034599 3.816971 0.371180
											}
										}
									}
								}
								JOINT newVegas:RightHandMiddle1
								{
									OFFSET -18.476105 0.000000 0.000000
									CHANNELS 3 Xrotation Yrotation Zrotation
									JOINT newVegas:RightHandMiddle2
									{
										OFFSET -3.324875 0.000000 0.000000
										CHANNELS 3 Xrotation Yrotation Zrotation
										JOINT newVegas:RightHandMiddle3
										{
											OFFSET -4.596550 0.000000 0.000000
											CHANNELS 3 Xrotation Yrotation Zrotation
											End Site
											{
												OFFSET -0.057701 4.578827 0.399218
											}
										}
									}
								}
								JOINT newVegas:RightHandRing1
								{
									OFFSET -17.732719 0.121887 -4.201567
									CHANNELS 3 Xrotation Yrotation Zrotation
									JOINT newVegas:RightHandRing2
									{
										OFFSET -2.733170 0.000000 0.000000
										CHANNELS 3 Xrotation Yrotation Zrotation
										JOINT newVegas:RightHandRing3
										{
											OFFSET -3.178268 0.000000 0.000000
											CHANNELS 3 Xrotation Yrotation Zrotation
											End Site
											{
												OFFSET -0.119102 3.170624 0.185394
											}
										}
									}
								}
								JOINT newVegas:RightHandPinky1
								{
									OFFSET -15.989624 -0.606689 -7.535461
									CHANNELS 3 Xrotation Yrotation Zrotation
									JOINT newVegas:RightHandPinky2
									{
										OFFSET -2.538986 0.000000 0.000000
										CHANNELS 3 Xrotation Yrotation Zrotation
										JOINT newVegas:RightHandPinky3
										{
											OFFSET -2.593102 0.000000 0.000000
											CHANNELS 3 Xrotation Yrotation Zrotation
											End Site
											{
												OFFSET 0.150902 2.584198 0.152708
											}
										}
									}
								}
							}
							JOINT newVegas:Right_CapeC
							{
								OFFSET -15.715958 -8.608795 -6.935905
								CHANNELS 3 Xrotation Yrotation Zrotation
								JOINT newVegas:Right_CapeC1
								{
									OFFSET 0.000000 -8.688499 0.000000
									CHANNELS 3 Xrotation Yrotation Zrotation
									End Site
									{
										OFFSET 0.000000 8.688499 0.000000
									}
								}
							}
							JOINT newVegas:Right_Sleeve
							{
								OFFSET -0.267448 -0.649994 0.577675
								CHANNELS 3 Xrotation Yrotation Zrotation
								End Site
								{
									OFFSET 0.000000 15.991302 0.000000
								}
							}
						}
						JOINT newVegas:Right_CapeA
						{
							OFFSET -5.115540 -8.608795 -10.395824
							CHANNELS 3 Xrotation Yrotation Zrotation
							JOINT newVegas:Right_CapeA1
							{
								OFFSET 0.000000 -8.688499 0.000000
								CHANNELS 3 Xrotation Yrotation Zrotation
								End Site
								{
									OFFSET 0.000000 8.688499 0.000000
								}
							}
						}
						JOINT newVegas:Right_CapeB
						{
							OFFSET -26.118187 -8.608795 -7.079266
							CHANNELS 3 Xrotation Yrotation Zrotation
							JOINT newVegas:Right_CapeB1
							{
								OFFSET 0.000000 -8.688499 0.000000
								CHANNELS 3 Xrotation Yrotation Zrotation
								End Site
								{
									OFFSET 0.000000 8.688499 0.000000
								}
							}
						}
					}
				}
				JOINT newVegas:Left_Collar
				{
					OFFSET 18.625099 8.655502 8.828100
					CHANNELS 3 Xrotation Yrotation Zrotation
					JOINT newVegas:Left_Collar1
					{
						OFFSET 14.783401 10.540405 -1.259500
						CHANNELS 3 Xrotation Yrotation Zrotation
						End Site
						{
							OFFSET 0.000000 18.199875 0.000000
						}
					}
				}
				JOINT newVegas:Collar_Back
				{
					OFFSET 0.000000 15.630707 -20.132601
					CHANNELS 3 Xrotation Yrotation Zrotation
					End Site
					{
						OFFSET 0.000000 22.523010 0.000000
					}
				}
				JOINT newVegas:Left_Peck
				{
					OFFSET 17.239599 -5.132599 25.482599
					CHANNELS 3 Xrotation Yrotation Zrotation
					End Site
					{
						OFFSET 0.000000 22.523010 0.000000
					}
				}
				JOINT newVegas:Right_Peck
				{
					OFFSET -17.239599 -5.132202 25.482599
					CHANNELS 3 Xrotation Yrotation Zrotation
					End Site
					{
						OFFSET 0.000000 22.523010 0.000000
					}
				}
				JOINT newVegas:Right_Collar
				{
					OFFSET -18.625099 8.655792 8.828100
					CHANNELS 3 Xrotation Yrotation Zrotation
					JOINT newVegas:Right_Collar1
					{
						OFFSET -14.783401 10.539993 -1.259500
						CHANNELS 3 Xrotation Yrotation Zrotation
						End Site
						{
							OFFSET 0.000000 18.199631 0.000000
						}
					}
				}
			}
		}
		JOINT newVegas:Belly
		{
			OFFSET 0.000000 -6.540398 9.014299
			CHANNELS 3 Xrotation Yrotation Zrotation
			End Site
			{
				OFFSET 0.000000 11.566666 0.000000
			}
		}
	}
	JOINT newVegas:ElvisFacialAnim_Joint
	{
		OFFSET 1.000000 -95.330101 -8.825800
		CHANNELS 3 Xrotation Yrotation Zrotation
		End Site
		{
			OFFSET 0.000000 35.315800 0.000000
		}
	}
}
MOTION
Frames: 4
Frame Time: 0.016667
-1.612604 86.462807 0.352119 -173.955383 -97.617829 -171.755366 0.000000 0.000000 0.000000 -27.038187 26.545875 35.064815 32.209475 -10.667808 1.042012 -7.663662 5.699985 -22.153558 -0.000000 0.000000 -0.000000 0.000001 -0.000001 0.000001 -30.711720 -3.844967 -30.477004 29.068817 4.755772 -5.149879 -2.555978 7.386160 27.712082 0.000000 0.000000 -0.000000 -0.000000 0.000000 -0.000001 7.186464 -5.527938 -4.679429 3.180253 -8.412487 -0.457311 3.240264 -8.382678 -0.141392 -2.313288 1.563849 1.283538 -2.313290 1.563884 1.283532 0.000001 0.000000 -0.000000 -2.313222 1.563862 1.283535 -2.313298 1.563860 1.283533 -0.000000 0.000001 -0.000000 0.000001 0.000000 -0.000000 4.998840 3.199387 13.148479 -41.287155 14.474971 -0.764743 0.404866 -12.304737 -0.189207 -49.608180 -4.504503 -0.286660 40.109944 -15.297214 -0.360453 5.639921 28.097749 11.338742 -0.000001 0.000001 -0.000003 6.882286 2.840015 -61.140500 8.247967 7.640049 -89.897932 -0.000003 0.000002 0.000003 -2.345526 4.688828 -62.655265 8.754163 9.897053 -87.051266 0.000000 0.000003 0.000002 -9.042484 10.045589 -60.766171 8.524046 9.508856 -66.892940 0.000001 0.000001 0.000001 -17.946786 14.755024 -51.485925 8.868323 8.666963 -84.811989 -0.000000 0.000000 -0.000001 -0.000002 -0.000000 -0.000000 -0.000002 -0.000000 -0.000000 -0.000003 -0.000000 -0.000000 -0.000000 -0.000002 -0.000000 -0.000000 -0.000002 -0.000000 -0.000000 -0.000002 -0.000000 -0.000000 -0.000002 -0.000000 -0.697213 3.176103 -19.419906 -43.720382 41.405956 39.746206 -0.236293 135.165154 1.057691 -74.611873 -0.241646 -6.555954 0.277507 -1.521515 -1.570513 7.168989 -41.689648 -15.773523 0.000001 0.000000 0.000001 6.412842 -12.738405 14.389573 9.941759 -7.465161 101.743242 -0.000003 0.000002 -0.000002 2.653213 -11.302322 44.730946 9.916096 -9.880656 94.351188 0.000002 0.000002 0.000000 2.140175 -7.454457 61.765032 9.609273 -8.992477 89.388701 0.000000 -0.000001 -0.000002 -4.886633 -23.798157 68.396176 13.518263 -7.949258 112.864935 0.000001 -0.000002 -0.000000 -0.000000 -0.000000 0.000000 0.000000 -0.000000 0.000000 -0.000000 -0.000000 0.000000 -0.000000 0.000000 0.000000 -0.000000 0.000001 0.000000 -0.000000 0.000000 0.000000 -0.000000 0.000001 -0.000000 -0.000000 0.000001 0.000001 -0.000000 0.000001 0.000001 -0.000000 0.000001 0.000001 -0.000000 0.000001 0.000001 -0.000000 0.000001 0.000001 -0.000000 0.000001 0.000001 -0.000000 0.000001 0.000001 -0.000000 0.000000 0.000000 0.000000 0.000000 0.000000 
-1.651326 86.462585 0.357619 -174.059147 -97.696328 -171.839295 -0.000000 0.000001 -0.000000 -26.996553 26.522057 35.017260 32.163023 -10.696848 1.038494 -7.649108 5.698338 -22.154366 0.000000 0.000002 -0.000000 0.000001 -0.000002 0.000001 -30.624082 -3.801008 -30.499926 29.142037 4.658362 -5.169907 -2.659630 7.341886 27.762824 0.000000 -0.000000 0.000000 -0.000000 -0.000000 -0.000003 7.171428 -5.563133 -4.714980 3.193037 -8.441199 -0.434101 3.256760 -8.414371 -0.119542 -2.310005 1.565275 1.286952 -2.309998 1.565307 1.286950 -0.000000 0.000000 0.000000 -2.309940 1.565315 1.286947 -2.310012 1.565270 1.286951 -0.000000 -0.000001 0.000000 -0.000000 0.000000 0.000000 4.942451 3.372610 13.150520 -41.216797 14.374471 -0.890734 0.408200 -12.293958 -0.188314 -49.593532 -4.514074 -0.289856 40.109941 -15.297213 -0.360451 5.639919 28.097744 11.338742 0.000002 -0.000002 -0.000005 6.882287 2.840015 -61.140500 8.247967 7.640050 -89.897932 0.000000 0.000000 0.000001 -2.345526 4.688827 -62.655272 8.754160 9.897053 -87.051260 -0.000000 -0.000001 -0.000002 -9.042485 10.045588 -60.766178 8.524049 9.508858 -66.892940 -0.000000 -0.000002 0.000003 -17.946786 14.755022 -51.485915 8.868326 8.666961 -84.811996 -0.000003 -0.000002 -0.000002 0.000000 -0.000000 0.000000 0.000000 -0.000000 0.000000 -0.000001 -0.000000 0.000000 0.000000 -0.000001 -0.000001 0.000000 -0.000001 -0.000001 0.000000 -0.000001 -0.000001 0.000000 -0.000001 -0.000001 -0.667744 3.236925 -19.377593 -43.532511 41.170536 39.610985 -0.208214 135.324585 1.024178 -74.601280 -0.328453 -6.443855 0.277502 -1.521517 -1.570510 7.168992 -41.689648 -15.773528 -0.000000 -0.000002 -0.000001 6.412836 -12.738406 14.389574 9.941753 -7.465159 101.743242 0.000001 -0.000002 -0.000002 2.653210 -11.302324 44.730946 9.916092 -9.880657 94.351188 -0.000002 0.000000 -0.000000 2.140173 -7.454461 61.765039 9.609273 -8.992479 89.388694 0.000001 -0.000001 0.000001 -4.886637 -23.798158 68.396169 13.518261 -7.949253 112.864942 -0.000001 0.000002 0.000000 -0.000000 0.000000 0.000000 -0.000000 -0.000000 0.000000 -0.000000 0.000000 0.000000 -0.000000 -0.000001 -0.000000 -0.000000 0.000000 -0.000000 -0.000000 -0.000001 -0.000000 -0.000000 -0.000000 -0.000000 -0.000000 0.000001 0.000001 -0.000000 0.000001 0.000001 -0.000000 0.000001 0.000001 -0.000000 0.000001 0.000001 -0.000000 0.000001 0.000001 -0.000000 0.000001 0.000001 -0.000000 0.000001 0.000001 0.000000 0.000000 0.000000 -0.000000 0.000001 -0.000000 
-1.689882 86.462120 0.363061 -174.159059 -97.774206 -171.919495 -0.000000 -0.000000 -0.000000 -26.956288 26.499360 34.970941 32.117523 -10.727193 1.035041 -7.635073 5.697028 -22.154863 -0.000000 -0.000000 -0.000000 -0.000000 0.000001 0.000002 -30.536881 -3.757179 -30.522838 29.214355 4.558411 -5.189589 -2.762530 7.300870 27.813756 -0.000000 -0.000000 0.000000 0.000000 -0.000001 0.000000 7.157322 -5.596708 -4.753734 3.205282 -8.468310 -0.412651 3.272584 -8.444018 -0.099793 -2.306781 1.566757 1.290377 -2.306778 1.566744 1.290377 0.000000 -0.000000 0.000000 -2.306706 1.566767 1.290375 -2.306780 1.566737 1.290380 -0.000001 0.000000 -0.000000 0.000000 -0.000000 0.000000 4.890248 3.523471 13.153896 -41.149841 14.283769 -0.998569 0.411564 -12.283004 -0.187471 -49.578776 -4.523385 -0.293026 40.109951 -15.297213 -0.360453 5.639919 28.097745 11.338741 0.000002 0.000000 -0.000001 6.882288 2.840016 -61.140500 8.247966 7.640048 -89.897932 0.000001 -0.000002 -0.000000 -2.345523 4.688825 -62.655265 8.754163 9.897056 -87.051266 -0.000000 0.000002 0.000004 -9.042484 10.045587 -60.766178 8.524047 9.508859 -66.892940 0.000000 -0.000001 0.000002 -17.946783 14.755022 -51.485918 8.868325 8.666961 -84.811989 -0.000002 -0.000002 -0.000001 0.000001 -0.000000 -0.000000 0.000001 -0.000000 -0.000000 -0.000000 -0.000000 -0.000000 0.000001 0.000000 -0.000000 0.000001 0.000000 -0.000000 0.000001 0.000000 -0.000000 0.000001 0.000000 -0.000000 -0.637570 3.300934 -19.333491 -43.321530 40.922566 39.468938 -0.182326 135.493987 0.993863 -74.580065 -0.410728 -6.329820 0.277505 -1.521516 -1.570512 7.168990 -41.689648 -15.773526 0.000000 0.000002 0.000001 6.412838 -12.738406 14.389574 9.941757 -7.465160 101.743242 -0.000002 0.000001 -0.000004 2.653212 -11.302325 44.730946 9.916093 -9.880657 94.351188 0.000000 -0.000001 0.000003 2.140172 -7.454460 61.765032 9.609267 -8.992473 89.388701 -0.000001 -0.000001 0.000004 -4.886633 -23.798157 68.396176 13.518263 -7.949251 112.864942 -0.000000 -0.000005 -0.000002 -0.000000 0.000000 0.000000 -0.000000 0.000000 0.000000 -0.000000 0.000000 0.000000 0.000000 -0.000001 0.000000 0.000000 0.000000 -0.000000 0.000000 -0.000001 0.000000 0.000000 -0.000000 -0.000000 -0.000000 0.000000 0.000000 -0.000000 0.000000 0.000000 -0.000000 0.000000 0.000000 -0.000000 0.000000 0.000000 -0.000000 0.000000 0.000000 -0.000000 0.000000 0.000000 -0.000000 0.000000 0.000000 0.000001 0.000000 0.000000 -0.000000 -0.000000 -0.000000 
-1.728224 86.461349 0.368437 -174.255515 -97.851599 -171.996280 0.000000 0.000000 -0.000000 -26.917661 26.477669 34.925558 32.073544 -10.774588 1.030460 -7.621918 5.711417 -22.151355 0.000000 0.000002 -0.000000 -0.000001 0.000003 0.000003 -30.450865 -3.713334 -30.545671 29.287390 4.458419 -5.209066 -2.865307 7.260659 27.864546 -0.000000 -0.000000 0.000000 0.000000 -0.000001 -0.000004 7.144077 -5.631117 -4.792303 3.217082 -8.497972 -0.386806 3.288896 -8.475682 -0.075522 -2.303528 1.568191 1.293808 -2.303535 1.568172 1.293807 0.000001 -0.000000 0.000000 -2.303525 1.568169 1.293808 -2.303459 1.568171 1.293804 -0.000000 -0.000001 0.000000 0.000001 -0.000000 -0.000000 4.841603 3.655641 13.158283 -41.084076 14.218009 -1.098240 0.414898 -12.271947 -0.186576 -49.563749 -4.532727 -0.296232 40.109944 -15.297214 -0.360449 5.639920 28.097745 11.338742 0.000000 -0.000000 -0.000005 6.882290 2.840017 -61.140500 8.247966 7.640046 -89.897932 0.000002 -0.000001 0.000002 -2.345528 4.688826 -62.655265 8.754160 9.897054 -87.051266 0.000001 0.000002 0.000003 -9.042488 10.045587 -60.766178 8.524044 9.508858 -66.892940 -0.000000 -0.000002 0.000002 -17.946785 14.755022 -51.485922 8.868326 8.666964 -84.811989 0.000000 0.000000 -0.000001 -0.000001 -0.000000 -0.000000 -0.000001 -0.000000 -0.000000 -0.000002 -0.000000 0.000000 0.000000 -0.000001 -0.000000 0.000000 -0.000001 -0.000000 0.000000 -0.000001 -0.000000 0.000000 -0.000001 -0.000000 -0.606760 3.367928 -19.287855 -43.123335 40.674996 39.333004 -0.149024 135.647939 0.959556 -74.559807 -0.500139 -6.199176 0.277503 -1.521515 -1.570512 7.168991 -41.689641 -15.773526 0.000002 0.000001 0.000001 6.412839 -12.738404 14.389573 9.941753 -7.465161 101.743242 -0.000001 -0.000000 -0.000004 2.653211 -11.302322 44.730950 9.916094 -9.880657 94.351188 -0.000002 0.000001 -0.000000 2.140172 -7.454458 61.765032 9.609270 -8.992477 89.388707 -0.000003 0.000001 -0.000000 -4.886633 -23.798155 68.396176 13.518265 -7.949258 112.864935 0.000002 -0.000000 -0.000000 -0.000000 0.000000 -0.000000 -0.000000 -0.000000 -0.000000 -0.000000 0.000000 0.000000 -0.000000 0.000003 -0.000000 -0.000000 0.000003 0.000000 -0.000000 0.000003 -0.000000 -0.000000 0.000003 0.000000 -0.000001 0.000000 -0.000000 -0.000001 0.000000 -0.000000 -0.000001 0.000000 -0.000000 -0.000001 0.000000 -0.000000 -0.000001 0.000000 -0.000000 -0.000001 0.000000 -0.000000 -0.000001 0.000000 -0.000000 -0.000001 0.000000 0.000000 0.000000 0.000000 -0.000000 
